<svg width="21" height="20" viewBox="0 0 21 20" fill="none" xmlns="http://www.w3.org/2000/svg">
<path d="M11.7953 18.6604L10.7786 19.6771C10.3481 20.1076 9.65194 20.1076 9.22601 19.6771L0.322876 10.7786C-0.107625 10.3481 -0.107625 9.65194 0.322876 9.22601L9.22601 0.322876C9.65652 -0.107625 10.3526 -0.107625 10.7786 0.322876L11.7953 1.33959C12.2304 1.77467 12.2212 2.48454 11.777 2.91046L6.2583 8.16808H19.4207C20.0298 8.16808 20.5198 8.65812 20.5198 9.26723V10.7328C20.5198 11.3419 20.0298 11.8319 19.4207 11.8319H6.2583L11.777 17.0895C12.2258 17.5155 12.2349 18.2253 11.7953 18.6604Z" fill="white" fill-opacity="1"/>
</svg>
