<svg width="43" height="43" viewBox="0 0 43 43" fill="none" xmlns="http://www.w3.org/2000/svg">
<path d="M13.8214 43H4.60714C2.06362 43 0 40.9364 0 38.3929V4.60714C0 2.06362 2.06362 0 4.60714 0H13.8214C16.365 0 18.4286 2.06362 18.4286 4.60714V38.3929C18.4286 40.9364 16.365 43 13.8214 43ZM43 38.3929V4.60714C43 2.06362 40.9364 0 38.3929 0H29.1786C26.635 0 24.5714 2.06362 24.5714 4.60714V38.3929C24.5714 40.9364 26.635 43 29.1786 43H38.3929C40.9364 43 43 40.9364 43 38.3929Z" fill="white" fill-opacity="1"/>
</svg>
