<svg width="22" height="20" viewBox="0 0 22 20" fill="none" xmlns="http://www.w3.org/2000/svg">
<path d="M20.9734 18.1884C19.688 15.9325 17.6809 14.1747 15.2752 13.198C16.4716 12.3008 17.3553 11.0499 17.8011 9.62249C18.247 8.1951 18.2325 6.6636 17.7596 5.24492C17.2867 3.82625 16.3794 2.59233 15.1663 1.71795C13.9531 0.843563 12.4956 0.373047 11.0002 0.373047C9.50481 0.373047 8.04731 0.843563 6.83416 1.71795C5.62102 2.59233 4.71375 3.82625 4.24086 5.24492C3.76797 6.6636 3.75343 8.1951 4.19932 9.62249C4.6452 11.0499 5.52889 12.3008 6.72522 13.198C4.31953 14.1747 2.31245 15.9325 1.0271 18.1884C0.947454 18.3164 0.894371 18.4592 0.871006 18.6082C0.847641 18.7572 0.85447 18.9093 0.891088 19.0556C0.927706 19.2019 0.993366 19.3394 1.08416 19.4598C1.17496 19.5802 1.28904 19.6811 1.41963 19.7566C1.55021 19.832 1.69463 19.8805 1.8443 19.899C1.99397 19.9175 2.14584 19.9057 2.29087 19.8644C2.4359 19.823 2.57114 19.7529 2.68854 19.6583C2.80595 19.5636 2.90312 19.4463 2.97429 19.3134C4.67304 16.3771 7.67304 14.6259 11.0002 14.6259C14.3274 14.6259 17.3274 16.378 19.0262 19.3134C19.1804 19.5614 19.425 19.7397 19.7083 19.8106C19.9916 19.8815 20.2914 19.8394 20.5443 19.6933C20.7972 19.5472 20.9833 19.3085 21.0634 19.0277C21.1434 18.7468 21.1112 18.4458 20.9734 18.1884ZM6.12523 7.50086C6.12523 6.53668 6.41114 5.59414 6.94681 4.79245C7.48248 3.99077 8.24385 3.36592 9.13464 2.99695C10.0254 2.62797 11.0056 2.53143 11.9513 2.71953C12.8969 2.90763 13.7656 3.37193 14.4474 4.05371C15.1292 4.73549 15.5935 5.60414 15.7816 6.54979C15.9697 7.49545 15.8731 8.47565 15.5041 9.36644C15.1352 10.2572 14.5103 11.0186 13.7086 11.5543C12.9069 12.0899 11.9644 12.3759 11.0002 12.3759C9.70775 12.3744 8.46864 11.8603 7.55472 10.9464C6.64081 10.0324 6.12671 8.79333 6.12523 7.50086Z" fill="white" fill-opacity="0.8"/>
</svg>
