<svg width="21" height="20" viewBox="0 0 21 20" fill="none" xmlns="http://www.w3.org/2000/svg">
<path d="M19 13.0121L14.5853 11.033L14.5684 11.0255C14.2815 10.9018 13.9681 10.852 13.6569 10.8807C13.3458 10.9093 13.0467 11.0155 12.7872 11.1896C12.7508 11.2139 12.7158 11.2402 12.6822 11.2683L10.5906 13.0496C9.37188 12.3887 8.11282 11.1399 7.45094 9.93615L9.23782 7.81178C9.26654 7.77749 9.29316 7.74148 9.31751 7.70396C9.48699 7.44536 9.58989 7.14885 9.61704 6.84085C9.64419 6.53285 9.59476 6.22292 9.47313 5.93865C9.47024 5.93321 9.46774 5.92757 9.46563 5.92178L7.48751 1.49959C7.32513 1.12977 7.04801 0.822046 6.69716 0.621966C6.3463 0.421886 5.94035 0.340079 5.53938 0.388651C4.17848 0.567426 2.92918 1.23547 2.02482 2.26801C1.12046 3.30056 0.62288 4.62699 0.625007 5.99959C0.625007 13.6505 6.84907 19.8746 14.5 19.8746C15.8726 19.8767 17.199 19.3791 18.2316 18.4748C19.2641 17.5704 19.9322 16.3211 20.1109 14.9602C20.1595 14.5592 20.0777 14.1533 19.8776 13.8024C19.6776 13.4516 19.3698 13.1745 19 13.0121ZM14.5 17.6246C11.418 17.6209 8.4633 16.3949 6.284 14.2156C4.1047 12.0363 2.87873 9.08159 2.87501 5.99959C2.87286 5.22286 3.13655 4.46879 3.62227 3.86267C4.10799 3.25654 4.78648 2.83487 5.54501 2.66771L7.30938 6.60521L5.51313 8.74459C5.4841 8.77919 5.45717 8.8155 5.43251 8.85334C5.25546 9.12386 5.15137 9.43556 5.13034 9.75818C5.10932 10.0808 5.17207 10.4034 5.31251 10.6946C6.19563 12.5021 8.01532 14.3096 9.84157 15.1946C10.1347 15.3336 10.4589 15.3941 10.7825 15.3703C11.106 15.3464 11.4179 15.2391 11.6875 15.0587C11.7238 15.0342 11.7585 15.0076 11.7916 14.979L13.8944 13.1912L17.8319 14.9546C17.6647 15.7131 17.2431 16.3916 16.6369 16.8773C16.0308 17.363 15.2767 17.6267 14.5 17.6246Z" fill="white" fill-opacity="0.8"/>
</svg>
